<?xml version="1.0" encoding="UTF-8"?>
<svg id="Layer_1" data-name="Layer 1" xmlns="http://www.w3.org/2000/svg" xmlns:xlink="http://www.w3.org/1999/xlink" viewBox="0 0 304.9686 177.474">
  <defs>
    <style>
      .cls-1 {
        fill: url(#linear-gradient);
      }

      .cls-2 {
        fill: #fff;
      }

      .cls-3 {
        fill: #13142a;
      }
    </style>
    <linearGradient id="linear-gradient" x1="113.4022" y1="48.2767" x2="103.8722" y2="73.1228" gradientUnits="userSpaceOnUse">
      <stop offset="0" stop-color="#70c38b"/>
      <stop offset="1" stop-color="#0f90c0"/>
    </linearGradient>
  </defs>
  <rect class="cls-2" x=".5" y=".5" width="306.4362" height="175.3917"/>
  <g>
    <g>
      <path class="cls-3" d="M101.6431,77.049h-14.0982c-1.713,0-2.7803-1.8581-1.9173-3.3378h0s10.948-18.6287,10.948-18.6287c.841-1.431-.1908-3.2342-1.8506-3.2342h-18.4874c-6.3477,0-11.4935,5.1458-11.4935,11.4935h0c0,5.7269,4.6425,10.3694,10.3693,10.3694h0c1.6153,0,2.6363,1.7355,1.8516,3.1474l-.1058.1904-6.7054,11.614c-3.2742,5.6711-1.3314,12.9226,4.3395,16.1972l.3062.1768c5.671,3.2747,12.923,1.3318,16.1973-4.3395l12.15-21.0443c.6683-1.1574-.1671-2.6043-1.5036-2.6043Z"/>
      <path class="cls-1" d="M109.4867,51.8484h-4.6152c-.6589,0-2.9307,0-4.3158,2.6899l-8.0908,14.3582c-1.1515,2.1323.3926,4.7211,2.816,4.7211h13.6679c4.1652,0,7.9949-2.2843,9.974-5.9492h0c3.8586-7.1452-1.3157-15.82-9.4361-15.82ZM103.3957,65.0584c-.9793,0-1.7731-.7939-1.7731-1.7732s.7938-1.7732,1.7731-1.7732,1.7731.7938,1.7731,1.7732-.7938,1.7732-1.7731,1.7732ZM108.1353,65.0584c-.9793,0-1.7731-.7939-1.7731-1.7732s.7938-1.7732,1.7731-1.7732,1.7731.7938,1.7731,1.7732-.7939,1.7732-1.7731,1.7732ZM112.875,65.0584c-.9793,0-1.7731-.7939-1.7731-1.7732s.7939-1.7732,1.7731-1.7732,1.7732.7938,1.7732,1.7732-.7939,1.7732-1.7732,1.7732Z"/>
    </g>
    <g>
      <path class="cls-3" d="M135.621,91.2227c0,7.5508-4.9316,13.0264-12.3799,13.0264-7.415,0-12.2783-5.4424-12.2783-12.9922s4.8975-13.0273,12.3125-13.0273c7.4482,0,12.3457,5.4424,12.3457,12.9932ZM129.8055,91.2227c0-4.7959-2.4492-7.6533-6.4961-7.6533-4.082,0-6.5303,2.8574-6.5303,7.6533s2.4141,7.6523,6.5303,7.6523c4.0127,0,6.4961-2.8564,6.4961-7.6523Z"/>
      <path class="cls-3" d="M155.246,93.3311v10.5098h-5.2383v-9.251c0-3.2998-2.1768-3.5371-2.9922-3.5371-.9531,0-3.4014.2373-3.4014,3.4688v9.3193h-5.2383v-17.0059h5l.1357,1.3945c.9521-1.1904,2.7207-1.9385,4.6602-1.9385,4.7949,0,7.0742,2.8223,7.0742,7.04Z"/>
      <path class="cls-3" d="M175.245,97.0723h-12.3809c.3066,2.0068,2.0752,2.7549,3.7754,2.7549,1.8027,0,2.9248-.7822,3.6055-2.04l4.3535,1.7002c-1.1904,2.9932-4.2852,4.7959-7.9248,4.7959-5.1357,0-8.707-3.5713-8.707-8.9795s3.5371-9.0127,8.7412-9.0127c5.1699,0,8.5371,3.6045,8.5371,9.0469v1.7344ZM163.0008,93.501h6.9043c-.1699-2.0068-1.4629-2.8906-3.2998-2.8906-1.9043,0-3.1963.9863-3.6045,2.8906Z"/>
      <path class="cls-3" d="M196.0946,83.9102h-6.8369v19.9307h-5.5098v-19.9307h-6.8701v-5.2383h19.2168v5.2383Z"/>
      <path class="cls-3" d="M205.8221,103.8409c-.0684-.2725-.1709-.7822-.2383-1.4287-.8164.9863-2.3809,1.8711-4.6934,1.8711-3.5039,0-6.1562-2.0068-6.1562-5.6123,0-3.4688,2.4141-5.3057,6.1562-5.3057h4.5566v-.5439c0-1.6328-1.1904-2.3467-2.8906-2.3467-1.7344,0-2.8906.7139-3.6729,2.1768l-3.7754-2.1436c1.7002-3.1631,4.5918-4.2168,7.7549-4.2168,3.9111,0,7.6865,1.6318,7.6865,7.4482v6.0537c0,1.8711.1357,3.5039.3398,4.0479h-5.0674ZM205.4813,96.834h-3.2988c-1.4287,0-2.1084.7148-2.1084,1.7686,0,1.1572.7822,1.8027,2.3467,1.8027.8838,0,3.0605-.2041,3.0605-3.2988v-.2725Z"/>
      <path class="cls-3" d="M224.3583,104.2833c-2.2451,0-4.3535-.8164-5.374-2.041v9.7617h-5.1025v-25.1689h4.7285l.2041,1.5303c.8496-.9863,2.6523-2.0742,5.373-2.0742,4.8643,0,8.5029,2.8906,8.6396,8.707.1699,6.2236-3.8438,9.2852-8.4688,9.2852ZM227.6229,95.2696c0-2.6865-1.8711-4.251-4.251-4.251s-4.2861,1.5645-4.2861,4.251,1.9053,4.252,4.2861,4.252,4.251-1.5645,4.251-4.252Z"/>
    </g>
  </g>
</svg>